<?xml version="1.0" encoding="UTF-8" standalone="no"?>
<!DOCTYPE svg PUBLIC "-//W3C//DTD SVG 1.1//EN"
 "http://www.w3.org/Graphics/SVG/1.1/DTD/svg11.dtd">
<!-- Generated by graphviz version 2.47.1 (20210417.1919)
 -->
<!-- Title: Somente um zero no inicio e no fim Pages: 1 -->
<svg width="437pt" height="175pt"
 viewBox="0.00 0.00 437.00 175.00" xmlns="http://www.w3.org/2000/svg" xmlns:xlink="http://www.w3.org/1999/xlink">
<g id="graph0" class="graph" transform="scale(1 1) rotate(0) translate(4 171)">
<title>Somente um zero no inicio e no fim</title>
<polygon fill="white" stroke="transparent" points="-4,4 -4,-171 433,-171 433,4 -4,4"/>
<!-- Start -->
<g id="node1" class="node">
<title>Start</title>
</g>
<!-- A -->
<g id="node3" class="node">
<title>A</title>
<ellipse fill="none" stroke="black" cx="109" cy="-132" rx="18" ry="18"/>
<text text-anchor="middle" x="109" y="-128.3" font-family="Times New Roman,serif" font-size="14.00">A</text>
</g>
<!-- Start&#45;&gt;A -->
<g id="edge1" class="edge">
<title>Start&#45;&gt;A</title>
<path fill="none" stroke="black" d="M54.19,-132C62.65,-132 72.05,-132 80.6,-132"/>
<polygon fill="black" stroke="black" points="90.83,-132 80.83,-136.5 85.83,-132 80.83,-132 80.83,-132 80.83,-132 85.83,-132 80.83,-127.5 90.83,-132 90.83,-132"/>
</g>
<!-- T -->
<g id="node2" class="node">
<title>T</title>
<ellipse fill="none" stroke="black" cx="407" cy="-113" rx="18" ry="18"/>
<text text-anchor="middle" x="407" y="-109.3" font-family="Times New Roman,serif" font-size="14.00">T</text>
</g>
<!-- A&#45;&gt;T -->
<g id="edge2" class="edge">
<title>A&#45;&gt;T</title>
<path fill="none" stroke="black" d="M126.33,-137.33C142.34,-142.27 167.55,-149.24 190,-152 259.41,-160.54 340.31,-136.79 380.56,-122.66"/>
<polygon fill="black" stroke="black" points="390.11,-119.22 382.23,-126.84 385.4,-120.91 380.7,-122.61 380.7,-122.61 380.7,-122.61 385.4,-120.91 379.17,-118.38 390.11,-119.22 390.11,-119.22"/>
<text text-anchor="middle" x="257.5" y="-155.8" font-family="Times New Roman,serif" font-size="14.00">11R</text>
</g>
<!-- B -->
<g id="node5" class="node">
<title>B</title>
<ellipse fill="none" stroke="black" cx="208" cy="-92" rx="18" ry="18"/>
<text text-anchor="middle" x="208" y="-88.3" font-family="Times New Roman,serif" font-size="14.00">B</text>
</g>
<!-- A&#45;&gt;B -->
<g id="edge3" class="edge">
<title>A&#45;&gt;B</title>
<path fill="none" stroke="black" d="M126.02,-125.39C141.04,-119.2 163.76,-109.83 181.32,-102.59"/>
<polygon fill="black" stroke="black" points="190.96,-98.61 183.43,-106.59 186.34,-100.52 181.71,-102.43 181.71,-102.43 181.71,-102.43 186.34,-100.52 180,-98.27 190.96,-98.61 190.96,-98.61"/>
<text text-anchor="middle" x="158.5" y="-119.8" font-family="Times New Roman,serif" font-size="14.00">0XR</text>
</g>
<!-- C -->
<g id="node4" class="node">
<title>C</title>
<ellipse fill="none" stroke="black" cx="307" cy="-67" rx="18" ry="18"/>
<text text-anchor="middle" x="307" y="-63.3" font-family="Times New Roman,serif" font-size="14.00">C</text>
</g>
<!-- C&#45;&gt;T -->
<g id="edge7" class="edge">
<title>C&#45;&gt;T</title>
<path fill="none" stroke="black" d="M323.75,-74.39C339.18,-81.63 362.94,-92.79 380.96,-101.25"/>
<polygon fill="black" stroke="black" points="390.29,-105.63 379.33,-105.45 385.77,-103.5 381.24,-101.38 381.24,-101.38 381.24,-101.38 385.77,-103.5 383.15,-97.3 390.29,-105.63 390.29,-105.63"/>
<text text-anchor="middle" x="355" y="-97.8" font-family="Times New Roman,serif" font-size="14.00">11R</text>
</g>
<!-- C&#45;&gt;T -->
<g id="edge8" class="edge">
<title>C&#45;&gt;T</title>
<path fill="none" stroke="black" d="M324.59,-62.95C336.88,-60.81 353.74,-59.77 367,-66 377.22,-70.8 385.69,-79.74 392.09,-88.55"/>
<polygon fill="black" stroke="black" points="397.79,-97.15 388.52,-91.3 395.03,-92.98 392.27,-88.81 392.27,-88.81 392.27,-88.81 395.03,-92.98 396.02,-86.33 397.79,-97.15 397.79,-97.15"/>
<text text-anchor="middle" x="355" y="-69.8" font-family="Times New Roman,serif" font-size="14.00">00R</text>
</g>
<!-- D -->
<g id="node6" class="node">
<title>D</title>
<ellipse fill="none" stroke="black" cx="407" cy="-22" rx="18" ry="18"/>
<ellipse fill="none" stroke="black" cx="407" cy="-22" rx="22" ry="22"/>
<text text-anchor="middle" x="407" y="-18.3" font-family="Times New Roman,serif" font-size="14.00">D</text>
</g>
<!-- C&#45;&gt;D -->
<g id="edge9" class="edge">
<title>C&#45;&gt;D</title>
<path fill="none" stroke="black" d="M316.01,-50.92C321.96,-40.91 331.09,-28.86 343,-23 352.72,-18.22 364.34,-16.98 374.94,-17.27"/>
<polygon fill="black" stroke="black" points="385.09,-17.99 374.8,-21.77 380.11,-17.64 375.12,-17.28 375.12,-17.28 375.12,-17.28 380.11,-17.64 375.44,-12.79 385.09,-17.99 385.09,-17.99"/>
<text text-anchor="middle" x="355" y="-26.8" font-family="Times New Roman,serif" font-size="14.00">**R</text>
</g>
<!-- B&#45;&gt;T -->
<g id="edge5" class="edge">
<title>B&#45;&gt;T</title>
<path fill="none" stroke="black" d="M225.24,-97.25C231.1,-98.99 237.8,-100.78 244,-102 287.44,-110.56 298.8,-110.55 343,-113 354.63,-113.64 367.49,-113.75 378.54,-113.66"/>
<polygon fill="black" stroke="black" points="388.87,-113.51 378.94,-118.15 383.87,-113.58 378.87,-113.65 378.87,-113.65 378.87,-113.65 383.87,-113.58 378.81,-109.15 388.87,-113.51 388.87,-113.51"/>
<text text-anchor="middle" x="307" y="-114.8" font-family="Times New Roman,serif" font-size="14.00">**R</text>
</g>
<!-- B&#45;&gt;C -->
<g id="edge6" class="edge">
<title>B&#45;&gt;C</title>
<path fill="none" stroke="black" d="M225.9,-87.65C240.64,-83.85 262.29,-78.27 279.36,-73.87"/>
<polygon fill="black" stroke="black" points="289.3,-71.3 280.74,-78.16 284.46,-72.55 279.61,-73.8 279.61,-73.8 279.61,-73.8 284.46,-72.55 278.49,-69.44 289.3,-71.3 289.3,-71.3"/>
<text text-anchor="middle" x="257.5" y="-86.8" font-family="Times New Roman,serif" font-size="14.00">0XR</text>
</g>
<!-- B&#45;&gt;B -->
<g id="edge4" class="edge">
<title>B&#45;&gt;B</title>
<path fill="none" stroke="black" d="M199.64,-108.29C197.62,-118.39 200.41,-128 208,-128 212.86,-128 215.76,-124.06 216.68,-118.57"/>
<polygon fill="black" stroke="black" points="216.36,-108.29 221.17,-118.15 216.52,-113.29 216.67,-118.29 216.67,-118.29 216.67,-118.29 216.52,-113.29 212.17,-118.42 216.36,-108.29 216.36,-108.29"/>
<text text-anchor="middle" x="208" y="-131.8" font-family="Times New Roman,serif" font-size="14.00">1YR</text>
</g>
</g>
</svg>
